<?xml version="1.0" encoding="UTF-8"?>
<svg xmlns="http://www.w3.org/2000/svg" xmlns:xlink="http://www.w3.org/1999/xlink" width="13px" height="14px" viewBox="0 0 13 14" version="1.1">
<g id="surface1">
<path style=" stroke:none;fill-rule:nonzero;fill:rgb(32.156864%,36.078432%,47.058824%);fill-opacity:1;" d="M 12.375 7.617188 C 12.726562 7.277344 12.726562 6.722656 12.375 6.378906 L 7.859375 2.003906 C 7.507812 1.664062 6.933594 1.664062 6.582031 2.003906 C 6.230469 2.347656 6.230469 2.902344 6.582031 3.242188 L 9.558594 6.125 L 0.902344 6.125 C 0.402344 6.125 0 6.515625 0 7 C 0 7.484375 0.402344 7.875 0.902344 7.875 L 9.554688 7.875 L 6.585938 10.757812 C 6.230469 11.097656 6.230469 11.652344 6.585938 11.996094 C 6.9375 12.335938 7.511719 12.335938 7.863281 11.996094 L 12.375 7.621094 Z M 12.375 7.617188 "/>
</g>
</svg>
