<?xml version="1.0" encoding="UTF-8"?>
<svg xmlns="http://www.w3.org/2000/svg" xmlns:xlink="http://www.w3.org/1999/xlink" width="12px" height="13px" viewBox="0 0 12 13" version="1.1">
<g id="surface1">
<path style=" stroke:none;fill-rule:nonzero;fill:rgb(60.392159%,60.392159%,60.392159%);fill-opacity:1;" d="M 3.957031 0.609375 C 3.957031 0.273438 3.679688 0 3.332031 0 C 2.988281 0 2.707031 0.273438 2.707031 0.609375 L 2.707031 1.625 L 1.667969 1.625 C 0.746094 1.625 0 2.355469 0 3.25 L 0 11.375 C 0 12.269531 0.746094 13 1.667969 13 L 10 13 C 10.917969 13 11.667969 12.269531 11.667969 11.375 L 11.667969 3.25 C 11.667969 2.355469 10.917969 1.625 10 1.625 L 8.957031 1.625 L 8.957031 0.609375 C 8.957031 0.273438 8.679688 0 8.332031 0 C 7.988281 0 7.707031 0.273438 7.707031 0.609375 L 7.707031 1.625 L 3.957031 1.625 Z M 1.25 4.875 L 10.417969 4.875 L 10.417969 11.375 C 10.417969 11.597656 10.230469 11.78125 10 11.78125 L 1.667969 11.78125 C 1.4375 11.78125 1.25 11.597656 1.25 11.375 Z M 1.25 4.875 "/>
</g>
</svg>
