<?xml version="1.0" encoding="UTF-8"?>
<svg xmlns="http://www.w3.org/2000/svg" xmlns:xlink="http://www.w3.org/1999/xlink" width="12px" height="13px" viewBox="0 0 12 13" version="1.1">
<g id="surface1">
<path style=" stroke:none;fill-rule:nonzero;fill:rgb(100%,100%,100%);fill-opacity:1;" d="M 2.5 0.8125 L 2.5 1.625 L 1.25 1.625 C 0.558594 1.625 0 2.171875 0 2.84375 L 0 4.0625 L 11.667969 4.0625 L 11.667969 2.84375 C 11.667969 2.171875 11.105469 1.625 10.417969 1.625 L 9.167969 1.625 L 9.167969 0.8125 C 9.167969 0.363281 8.792969 0 8.332031 0 C 7.871094 0 7.5 0.363281 7.5 0.8125 L 7.5 1.625 L 4.167969 1.625 L 4.167969 0.8125 C 4.167969 0.363281 3.792969 0 3.332031 0 C 2.871094 0 2.5 0.363281 2.5 0.8125 Z M 11.667969 4.875 L 0 4.875 L 0 11.78125 C 0 12.453125 0.558594 13 1.25 13 L 10.417969 13 C 11.105469 13 11.667969 12.453125 11.667969 11.78125 Z M 11.667969 4.875 "/>
</g>
</svg>
