<?xml version="1.0" encoding="UTF-8"?>
<svg xmlns="http://www.w3.org/2000/svg" xmlns:xlink="http://www.w3.org/1999/xlink" width="17px" height="17px" viewBox="0 0 17 17" version="1.1">
<g id="surface1">
<path style=" stroke:none;fill-rule:nonzero;fill:rgb(41.176471%,50.980395%,55.686277%);fill-opacity:1;" d="M 4.105469 12.992188 C 4.53125 12.679688 5.085938 12.601562 5.585938 12.78125 C 6.464844 13.097656 7.449219 13.28125 8.5 13.28125 C 12.640625 13.28125 15.40625 10.609375 15.40625 7.96875 C 15.40625 5.328125 12.640625 2.65625 8.5 2.65625 C 4.359375 2.65625 1.59375 5.328125 1.59375 7.96875 C 1.59375 9.03125 2.003906 10.054688 2.777344 10.929688 C 3.066406 11.253906 3.203125 11.675781 3.171875 12.109375 C 3.125 12.710938 2.980469 13.261719 2.796875 13.75 C 3.359375 13.488281 3.828125 13.195312 4.105469 12.996094 Z M 0.703125 14.339844 C 0.765625 14.25 0.820312 14.160156 0.875 14.070312 C 1.207031 13.519531 1.519531 12.796875 1.582031 11.984375 C 0.585938 10.851562 0 9.464844 0 7.96875 C 0 4.152344 3.804688 1.0625 8.5 1.0625 C 13.195312 1.0625 17 4.152344 17 7.96875 C 17 11.785156 13.195312 14.875 8.5 14.875 C 7.269531 14.875 6.097656 14.664062 5.042969 14.28125 C 4.648438 14.570312 4.003906 14.964844 3.242188 15.296875 C 2.738281 15.515625 2.167969 15.714844 1.578125 15.832031 C 1.550781 15.839844 1.523438 15.839844 1.496094 15.847656 C 1.351562 15.875 1.207031 15.898438 1.058594 15.910156 C 1.050781 15.910156 1.042969 15.914062 1.035156 15.914062 C 0.867188 15.929688 0.699219 15.941406 0.527344 15.941406 C 0.3125 15.941406 0.121094 15.8125 0.0351562 15.613281 C -0.046875 15.414062 0 15.1875 0.148438 15.035156 C 0.285156 14.894531 0.410156 14.746094 0.523438 14.585938 C 0.582031 14.511719 0.632812 14.433594 0.683594 14.355469 L 0.695312 14.339844 Z M 0.703125 14.339844 "/>
</g>
</svg>
