<?xml version="1.0" encoding="UTF-8"?>
<svg xmlns="http://www.w3.org/2000/svg" xmlns:xlink="http://www.w3.org/1999/xlink" width="12px" height="13px" viewBox="0 0 12 13" version="1.1">
<g id="surface1">
<path style=" stroke:none;fill-rule:nonzero;fill:rgb(100%,100%,100%);fill-opacity:1;" d="M 7.917969 3.25 C 7.917969 2.128906 6.984375 1.21875 5.832031 1.21875 C 4.683594 1.21875 3.75 2.128906 3.75 3.25 C 3.75 4.371094 4.683594 5.28125 5.832031 5.28125 C 6.984375 5.28125 7.917969 4.371094 7.917969 3.25 Z M 2.5 3.25 C 2.5 1.453125 3.992188 0 5.832031 0 C 7.675781 0 9.167969 1.453125 9.167969 3.25 C 9.167969 5.046875 7.675781 6.5 5.832031 6.5 C 3.992188 6.5 2.5 5.046875 2.5 3.25 Z M 1.285156 11.78125 L 10.386719 11.78125 C 10.152344 10.175781 8.738281 8.9375 7.027344 8.9375 L 4.644531 8.9375 C 2.933594 8.9375 1.519531 10.175781 1.285156 11.78125 Z M 0 12.246094 C 0 9.746094 2.078125 7.71875 4.644531 7.71875 L 7.023438 7.71875 C 9.589844 7.71875 11.667969 9.746094 11.667969 12.246094 C 11.667969 12.664062 11.320312 13 10.894531 13 L 0.773438 13 C 0.347656 13 0 12.664062 0 12.246094 Z M 0 12.246094 "/>
</g>
</svg>
